<svg xmlns="http://www.w3.org/2000/svg" width="284.7" height="227"><g data-name="Group 12"><g fill="var(--grey-1)" data-name="0"><path d="M137 158.2q-13.1 0-19.3-8t-6.2-22.7q0-8.4 1.2-16.4t3.5-15.2 5.7-13.2 8-10.4q4.4-4.5 10-7t12.3-2.5q5.9 0 10.6 1.7t8 5.3 4.9 9.3 1.7 13.5q0 8.2-1 16.2t-3.2 15.4-5.3 13.5-7.8 10.8-10.3 7.1-12.9 2.6m1.5-15.8q3 0 5.7-2.3t4.9-6.2q2.2-3.9 3.8-9t3-10.7 1.7-11.3.6-10.8q0-7-2-10.2t-5.7-3.2q-3.3 0-6 2.5t-4.9 6.6-3.9 9.5-2.8 10.7q-1.1 5.6-1.7 10.7t-.6 9.1q0 7.1 1.7 10.9t6.2 3.7"/><path fill="#737373" d="M137 159.2a39 39 0 0 1-9.2-1.1 24 24 0 0 1-7.2-3.5 20 20 0 0 1-5.2-5.9 27 27 0 0 1-3.3-7.8 40 40 0 0 1-1.5-9.7 65 65 0 0 1 0-7.9 118 118 0 0 1 3.5-24 87 87 0 0 1 7-17.1 54 54 0 0 1 10.4-12.8 35 35 0 0 1 14.1-6.9 33 33 0 0 1 22 3.3 21 21 0 0 1 8 10.2 31 31 0 0 1 2.3 9.2 54 54 0 0 1 .4 11.5 129 129 0 0 1-4.1 27.8 75 75 0 0 1-7.2 16.8 50 50 0 0 1-8.6 10.1 34 34 0 0 1-18 7.6zm15.2-95.4a33 33 0 0 0-11.9 2.5 32 32 0 0 0-12 9 45 45 0 0 0-7.1 10.9 67 67 0 0 0-6 17.3 95 95 0 0 0-2.7 24 58 58 0 0 0 1.5 12.8 30 30 0 0 0 4.5 9.4 18 18 0 0 0 7.6 5.7q2.3.9 5 1.4a34 34 0 0 0 23.6-5 32 32 0 0 0 6.8-6.3 44 44 0 0 0 7-11.3 65 65 0 0 0 4.7-14 104 104 0 0 0 3.1-23.6 127 127 0 0 0-.3-11.1 43 43 0 0 0-2.2-8.7 24 24 0 0 0-3.8-6.3 19 19 0 0 0-10-5.8 27 27 0 0 0-7.8-.9m-13.7 79.6-2.3-.3a7 7 0 0 1-2.8-1.4l-1.4-1.6-.6-1-.8-2.2a23 23 0 0 1-.9-5.6 49 49 0 0 1 .2-10.2 108 108 0 0 1 8.9-33.7 33 33 0 0 1 3.7-5.5l2.9-2.6a10 10 0 0 1 3.3-1.4 9 9 0 0 1 3.9 0 7 7 0 0 1 4.5 3.4l1 2 .6 2.5a27 27 0 0 1 .5 6.3 93 93 0 0 1-1.8 19.5 104 104 0 0 1-6.4 20.7 43 43 0 0 1-3.5 5.7l-2.6 2.8a12 12 0 0 1-3.1 2 9 9 0 0 1-3.3.6m12-63.7a7 7 0 0 0-4 1.2l-1.3 1a17 17 0 0 0-2.5 2.8 26 26 0 0 0-3.2 5.7 58 58 0 0 0-4.4 12.4 90 90 0 0 0-3 16 106 106 0 0 0-.4 12.2 32 32 0 0 0 .8 5.3l.7 2q.4.8 1 1.3a5 5 0 0 0 2.5 1.6 7 7 0 0 0 5.7-1l1.2-.9 2.4-2.5a24 24 0 0 0 3.2-5.4 47 47 0 0 0 3.6-9.3 101 101 0 0 0 4-35.8l-.6-2.2-.8-1.7q-.3-.7-.9-1.2a5 5 0 0 0-2.5-1.4z"/></g><g fill="var(--grey-1)" data-name="4"><path d="M99.6 137.5H88.5v19.2l-19 .1v-19.1l-39.4.2v-13.6l40.4-60 18-.2v58.3l11.1-.1Zm-30.1-30.7v-5.2l.2-6.1.3-5.5q0-2.5.2-3.3h-.5q-1.1 2.6-2.4 5.1t-3.1 5l-17 25.9 22.3-.2Z"/><path fill="#737373" d="M89.5 157.7h-1l-19 .1h-1v-19.1l-38.4.2h-1V124l.2-.2 40.4-60 .3-.5h.5l18-.2h1v58.3l10.1-.1h1v17.2H89.5v19.2m-19-1.9h17v-19.2h1l10.1-.1v-13.2H87.5V65.2l-16.5.2-39.9 59.3V137l38.4-.2h1v19.1m0-32.3h-1l-22.2.1h-1.9l1-1.5 17-25.8a54 54 0 0 0 5.4-10l.3-.6h2.3l-.2 1.2-.1 1.2a65 65 0 0 0-.4 7.4l-.2 11.3v16.7M49 121.6h19.4v-14.8a173 173 0 0 1 .4-15l-.1-.7-3.8 6.3z"/></g><g fill="var(--grey-1)" data-name="4"><path d="M259.6 137.5h-11.2v19.2l-19 .1v-19.1l-39.3.2v-13.6l40.4-60 18-.2v58.3l11-.1Zm-30.2-30.7v-5.2q0-3 .3-6.1l.2-5.5q.1-2.5.3-3.3h-.5l-2.5 5.1q-1.3 2.5-3 5l-17 25.9 22.2-.2Z"/><path fill="#737373" d="M249.4 157.7h-1l-19 .1h-1v-19.1l-38.3.2h-1V124l.2-.2 40.3-60 .3-.5h.6l18-.2h1v58.3l10-.1h1v17.2h-11v19.2m-19-1.9h17v-19.2h1l10.2-.1v-13.2h-11.2V65.2l-16.4.2-40 59.3V137l38.4-.2h1v19.1m0-32.3h-1l-22.2.1h-1.8l1-1.5 16.9-25.8a54 54 0 0 0 5.5-10l.2-.6h2.3l-.1 1.2-.1 1.2a65 65 0 0 0-.4 7.4l-.3 11.3v16.7m-21.3-1.9h19.3v-14.8a173 173 0 0 1 .5-15l-.2-.7-3.8 6.3z"/></g><g fill="none" stroke-dasharray="10" data-name="Path 15"><path d="M112.6 14c21.2-7.7 54.7 30.5 74.7 85.5s19 105.7-2.3 113.5-54.8-30.5-74.8-85.5-19-105.7 2.4-113.5"/><path fill="var(--grey-1)" d="M112.6 14h.2l.1-.1h.2l.1-.1h.3v-.1h.3l.1-.1h.3v-.1h.4l.1-.1h.5v-.1h.6v-.1h.8V13h3.3q1.3 0 2.5.3l-.8 4q-4.2-1-7.7.4zm19 3q3.1 1.8 6.3 4.3h.1v.1h.2v.1h.1v.1h.1v.1h.1l1.4 1.1-2.6 3.1q-3.9-3.3-7.6-5.3zm15.5 12.7q3.3 3.4 6.6 7.5l-3.1 2.5q-3.1-3.9-6.4-7.3zm12.6 15.5.1.1q2.8 4 5.4 8.2l-3.4 2.1q-2.6-4.2-5.3-8.1zm10.6 17 3.3 6v.1h.1v.2l.1.1v.1h.1v.1L175 71l-3.6 1.8q-2.2-4.6-4.6-8.7zm9 17.8 1.2 2.6v.1l.1.1v.2h.1v.2l.1.1v.1l.1.1 2.4 5.7-3.7 1.5-3.9-9zm7.6 18.5.2.5v.1l.1.1v.2h.1v.3l.1.1v.2h.1v.2l.1.1v.2l.1.1v.2h.1v.3h.1v.3h.1v.3h.1v.2l.1.2 1.1 3.2v.2h.1v.2h.1v.3h.1v.3h.1l.5 1.6-3.8 1.3-3.2-9.3zm2.4 20 3.9-1 .3 1.2v.3h.1v.4h.1v.3h.1v.3l.1.1v.3l.1.1v.3l.1.1v.3h.1v.1l.1.3v.3h.1v.4h.1v.3q.8 2.2 1.2 4.6l-3.9.9q-1.1-4.7-2.5-9.5m4.7 19.2 3.9-.8v.5h.1v.3q1 4.7 1.6 9l-4 .7q-.7-4.8-1.6-9.7m2.9 19.4 4-.4.3 3.8v.5l.4 5.7-4 .1zm.6 19.4 4 .2q-.2 4.6-.7 8.7v.4h-.1v.6h-.1v.2l-4-.6q.7-4.5 1-9.5m-3 18.6 3.9 1.2q-1 3-2.2 5.5v.1h-.1v.2h-.1v.2l-.1.1v.1h-.1v.2h-.1v.2l-.1.1-.1.1-1.4 2.3-3.3-2.2q2.2-3.4 3.7-8M177.6 210a13 13 0 0 0 7.5-1.3l1.8 3.5-.6.4h-.3v.1h-.2l-.1.1h-.2v.1h-.2l-.1.1h-.2v.1h-.3v.1h-.3v.1h-.3v.1h-.4v.1h-.3l-.1.1h-.3l-.2.1h-.4v.1h-.5l-.1.1h-.8v.1h-3.7zm-15.8-7.5q4 3 7.7 5l-1.8 3.5q-3-1.5-6.2-3.7v-.1h-.2v-.1h-.1v-.1h-.1v-.1h-.1l-.1-.1-1.6-1.2zm-13.6-13.5q3.3 4 6.5 7.1l-2.8 2.9q-2.5-2.5-4.9-5.3l-.1-.1-.1-.1-.1-.1-1.5-1.8zm-11.4-15.8 5.5 8.1-3.3 2.3-3-4.4h-.1v-.1h-.1v-.2h-.1v-.1h-.1v-.1l-.1-.1v-.1h-.1v-.2h-.1v-.1l-.1-.1v-.1h-.1l-.1-.2-.2-.3-.2-.2-.1-.3-.2-.2-.1-.2v-.1h-.1v-.2h-.1v-.1h-.1v-.2h-.1l-.1-.2-.3-.4zm-9.8-17q2.3 4.5 4.7 8.6l-3.5 2-3.2-5.9v-.1h-.1v-.1l-.1-.1v-.1q-.8-1.3-1.3-2.5zm-8.3-17.8 4 9-3.6 1.7-2.2-4.9v-.1h-.1v-.2l-.2-.2v-.3h-.1v-.2l-.1-.1v-.2h-.1v-.2h-.1v-.1l-1.2-2.7zM108 121l3.8-1.3 3.3 9.3-3.8 1.4-.7-2-.1-.2v-.3h-.1v-.2h-.1v-.3h-.1v-.3h-.1v-.2l-.1-.1v-.2h-.1v-.2l-.1-.2v-.2h-.1v-.3l-1.4-3.7v-.3h-.1v-.3zm-5.7-19.2 3.9-1 2.6 9.5-3.8 1.2zm-4-19.6 3.9-.6q.7 4.8 1.8 9.7l-4 .8zM96 62.5l4-.2q.2 4.7.7 9.7l-4 .4v-.2zm.6-20 4 .5q-.7 4.5-.8 9.6l-4-.1q.2-4.6.6-8.7V43l.1-.2v-.4m5.6-19 3.5 2a37 37 0 0 0-3.4 8.3l-3.8-1.1q1.5-5.2 3.7-9.3m10.3-9.5 1.3 3.8q-1.5.5-2.8 1.5l-2.3-3.3q1.5-1.2 3.4-1.9h.3"/></g><g fill="none" stroke-dasharray="10" data-name="Path 13"><path d="M0 28.2h114.4l16.4 166.5H16.5Z"/><path fill="var(--grey-1)" d="M0 28.2h10v4H.4zm20 0h10v4H20zm20 0h10v4H40zm20 0h10v4H60zm20 0h10v4H80zm20 0h10v4h-10zm15 5.6.8 8.2v.1l.1 1.6-4 .4-1-10zm2 19.9.3 4.2.6 5.7-4 .4-1-10zm1.9 19.9.5 4.9v.5l.5 4.5-4 .4-1-10zm2 19.9.4 4.6v.1l.5 5.2-4 .4-1-10zm2 19.9.5 5.9v.4l.4 3.6-4 .4-1-10zm1.9 19.9.4 4.4v.1l.6 5.4-4 .4-1-10zm2 19.9.6 6.8v.3l.3 2.8-4 .4-1-10zm2 19.9.3 4.1.6 5.8-4 .4-1-10zm-6.2 17.6h7.9l.3 4h-8.2zm-20 0h10v4h-10zm-20 0h10v4h-10zm-20 0h10v4h-10zm-20 0h10v4h-10zm-20 0h10v4h-10zM19 180.5l1 10-4 .3-1-10zm-2-20 1 10-4 .4-1-10zm-2-19.8 1 10-4 .3-1-10zm-2-20 1 10-4 .4-1-10zM11.3 101l1 10-4 .3-1-10zm-2-20 1 10-4 .4-1-10zm-2-19.8 1 10-4 .3-1-10zM5.4 41l1 10-4 .4-1-10z"/></g><g fill="none" stroke-dasharray="10" data-name="Path 14"><path d="M170.8 47.6 278.4 8.2l6.3 179.8-94.1 6.7Z"/><path fill="var(--grey-1)" d="m278.4 8.2.3 10-4 .2-.3-8.7zm.7 20 .2 6.6v.2l.1 3.2-4 .2-.3-10zm.7 20 .3 7.7v2.3l-4 .1-.3-10zm.7 20 .1 3.4.3 6.6-4 .1-.4-10zm.7 20v1.5l.4 8.5-4 .1-.4-10zm.7 20 .3 8.4v1.6l-4 .1-.3-10zm.7 20 .3 6.8v3.2l-4 .1-.3-10zm.7 20 .1 2.6v.1l.3 7.2-4 .2-.4-10zm.7 20 .1 2.4.3 7.5-4 .2-.4-10zm.3 15.8.3 4-10 .7-.3-4zm-20 1.4.3 4-10 .7-.2-4zm-20 1.4.4 4-10 .7-.3-4zm-19.9 1.5.3 4-10 .7-.2-4zm-20 1.4.4 4-10 .7-.3-4zm-12-11.1 1.4 9.9-4 .5-1.3-9.9zm-2.6-19.9 1.3 10-4 .5-1.3-10zM187 139l1.3 10-4 .5-1.3-10zm-2.7-19.8 1.4 10-4 .4-1.3-9.9zm-2.6-19.8 1.3 9.9-4 .5-1.3-9.9zM179 79.5l1.4 9.9-4 .5-1.3-10zm-2.6-19.9 1.3 10-4 .5-.6-5V65l-.7-4.8zm1.2-14.5 1.4 3.8-6.9 2.5-.4-1.2.4 1.2-.4-1.2h-.6l-.4-2.5.1-.1h.1zm18.8-6.9 1.4 3.8-9.4 3.4-1.4-3.7zm18.8-6.9 1.4 3.8-9.4 3.4-1.4-3.7zm18.8-6.8 1.3 3.7-9.4 3.5-1.3-3.8 3.6-1.3zm18.7-7 1.4 3.9-9.4 3.4-1.3-3.8zm18.8-6.8 1.4 3.8-9.4 3.4-1.4-3.7z"/></g></g></svg>
